<svg width="1714" height="1510" viewBox="0 0 1714 1510" fill="none" xmlns="http://www.w3.org/2000/svg">
<g filter="url(#filter0_d_1_324)">
<path d="M178.875 1472.95L282.637 1455.82C282.637 1455.82 279.054 1393.8 339.352 1384.09C392.77 1375.48 412.513 1434.39 412.513 1434.39L519.221 1416.78C519.221 1416.78 520.329 1350.57 579.643 1343.11C635.85 1336.05 652.843 1394.73 652.843 1394.73L766.025 1376.05C766.025 1376.05 756.876 1311.53 820.634 1302.33C878.665 1293.96 894.809 1354.79 894.809 1354.79L1003.99 1336.77C1003.99 1336.77 997.163 1273.93 1060.14 1263.41C1126.57 1252.33 1140.49 1314.25 1140.49 1314.25L1250.58 1296.08C1250.58 1296.08 1248.26 1234.09 1300.94 1223.67C1366.76 1210.64 1385.14 1273.87 1385.14 1273.87L1492.03 1256.23C1492.03 1256.23 1497.55 1191.95 1545.94 1182.55C1613.24 1169.48 1626.64 1234.02 1626.64 1234.02L1735.45 1216.06L1715.81 1077.55C1715.81 1077.55 1650.73 1075.01 1641.99 1017.06C1633.1 958.054 1695.28 932.744 1695.28 932.744L1678.21 812.318C1678.21 812.318 1612.75 814.549 1604.38 751.834C1596.36 691.877 1658.56 673.806 1658.56 673.806L1642.08 557.547C1642.08 557.547 1575.81 550.056 1567.17 489.397C1559.08 432.388 1620.96 408.577 1620.96 408.577L1605.16 297.193C1605.16 297.193 1537.23 292.431 1530.55 231.166C1523.86 169.823 1584.74 153.138 1584.74 153.138L1563.02 -3.17388e-05L1556.58 6.81666L1452.82 23.9408C1452.82 23.9408 1456.4 85.9576 1396.1 95.6673C1342.68 104.282 1322.94 45.3745 1322.94 45.3745L1216.23 62.985C1216.23 62.985 1215.13 129.196 1155.81 136.651C1099.61 143.714 1082.61 85.0369 1082.61 85.0369L969.43 103.716C969.43 103.716 978.579 168.234 914.821 177.428C856.79 185.798 840.646 124.969 840.646 124.969L731.464 142.988C731.464 142.988 738.297 205.876 675.316 216.351C608.886 227.435 594.97 165.514 594.97 165.514L484.879 183.682C484.879 183.682 487.192 245.667 434.514 256.091C368.695 269.126 350.312 205.89 350.312 205.89L243.421 223.531C243.421 223.531 237.909 287.813 189.514 297.208C122.213 310.287 108.818 245.745 108.818 245.745L0.000104418 263.703L19.6408 402.215C19.6408 402.215 84.7273 404.752 93.4651 462.699C102.354 521.708 40.1735 547.018 40.1735 547.018L57.2497 667.444C57.2497 667.444 122.702 665.213 131.074 727.928C139.092 787.885 76.8904 805.956 76.8904 805.956L93.3756 922.215C93.3756 922.215 159.648 929.706 168.287 990.366C176.371 1047.37 114.499 1071.19 114.499 1071.19L130.293 1182.57C130.293 1182.57 198.226 1187.33 204.904 1248.6C211.592 1309.94 150.72 1326.62 150.72 1326.62L172.434 1479.76L178.875 1472.95Z" fill="#F15A29"/>
</g>
<defs>
<filter id="filter0_d_1_324" x="0" y="0" width="1735.46" height="1509.76" filterUnits="userSpaceOnUse" color-interpolation-filters="sRGB">
<feFlood flood-opacity="0" result="BackgroundImageFix"/>
<feColorMatrix in="SourceAlpha" type="matrix" values="0 0 0 0 0 0 0 0 0 0 0 0 0 0 0 0 0 0 127 0" result="hardAlpha"/>
<feOffset dy="30"/>
<feComposite in2="hardAlpha" operator="out"/>
<feColorMatrix type="matrix" values="0 0 0 0 0 0 0 0 0 0 0 0 0 0 0 0 0 0 0.25 0"/>
<feBlend mode="normal" in2="BackgroundImageFix" result="effect1_dropShadow_1_324"/>
<feBlend mode="normal" in="SourceGraphic" in2="effect1_dropShadow_1_324" result="shape"/>
</filter>
</defs>
</svg>
